<svg xmlns="http://www.w3.org/2000/svg" viewBox="0 0 64 80" x="0px" y="0px"><title></title><g data-name="Funerals Insurance"><path d="M41.78,54H11a1,1,0,0,1-1-1,11,11,0,0,1,7.7-10.49A10.78,10.78,0,0,1,21,42H38a1,1,0,0,1,1,1v1.14a11.27,11.27,0,0,0,1.44,5.51,11.78,11.78,0,0,0,2,2.63,1,1,0,0,1,.24,1.09A1,1,0,0,1,41.78,54ZM12.05,52H39.58A13.36,13.36,0,0,1,37,44.14V44H21a8.91,8.91,0,0,0-6.36,2.64A8.94,8.94,0,0,0,12.05,52Z"/><path d="M41.78,54H8a1,1,0,0,1,0-2H41.78a1,1,0,0,1,0,2Z"/><path d="M18,44.46a1,1,0,0,1-.59-.19,1,1,0,0,1-.41-.81V20a4,4,0,0,1,3.36-3.95,12,12,0,0,1,23.28,0A4,4,0,0,1,47,20V33.28a1,1,0,0,1-.73,1L39,36.32V43a1,1,0,0,1-1,1H21a9.11,9.11,0,0,0-2.7.41A1,1,0,0,1,18,44.46ZM21,18a2,2,0,0,0-2,2V42.18A11.19,11.19,0,0,1,21,42H37V35.56a1,1,0,0,1,.73-1L45,32.53V20a2,2,0,0,0-2-2h-.18a1,1,0,0,1-1-.82,10,10,0,0,0-19.68,0,1,1,0,0,1-1,.82ZM46,33.28h0Z"/><path d="M46,48a1,1,0,0,1-.71-.29l-2.5-2.5a1,1,0,0,1,1.42-1.42L46,45.59l4.29-4.3a1,1,0,0,1,1.42,1.42l-5,5A1,1,0,0,1,46,48Z"/><path d="M47,57a.84.84,0,0,1-.27,0A13.17,13.17,0,0,1,42,54.55a10.59,10.59,0,0,1-.95-.83A13.31,13.31,0,0,1,37,44.14V35.56a1,1,0,0,1,.73-1l9-2.56a1,1,0,0,1,.54,0l9,2.56a1,1,0,0,1,.73,1v8.58a13.26,13.26,0,0,1-3.28,8.74,10.41,10.41,0,0,1-.8.84A13.6,13.6,0,0,1,47.28,57,.9.9,0,0,1,47,57ZM39,36.32v7.82a11.27,11.27,0,0,0,1.44,5.51,11.78,11.78,0,0,0,2,2.63c.26.24.52.48.8.7A11.57,11.57,0,0,0,47,55a11.65,11.65,0,0,0,4.54-2.68c.23-.23.46-.46.67-.71A11.31,11.31,0,0,0,55,44.14V36.32L47,34Z"/><path d="M32,35a1,1,0,0,1-1-1V17a1,1,0,0,1,2,0V34A1,1,0,0,1,32,35Z"/><path d="M37,24H27a1,1,0,0,1,0-2H37a1,1,0,0,1,0,2Z"/></g><text x="0" y="79" fill="#000000" font-size="5px" font-weight="bold" font-family="'Helvetica Neue', Helvetica, Arial-Unicode, Arial, Sans-serif"></text><text x="0" y="84" fill="#000000" font-size="5px" font-weight="bold" font-family="'Helvetica Neue', Helvetica, Arial-Unicode, Arial, Sans-serif"></text></svg>
