<svg xmlns="http://www.w3.org/2000/svg" xmlns:xlink="http://www.w3.org/1999/xlink" version="1.1" x="0px" y="0px" viewBox="0 0 100 125" enable-background="new 0 0 100 100" xml:space="preserve"><g><g><path fill="none" d="M50.107,63.145c3.398-0.887,16.531-25.357,16.531-34.785c0-9.174-7.464-16.637-16.64-16.637    c-9.173,0-16.636,7.463-16.636,16.637c0,4.172,2.849,12.861,6.929,21.129C45.332,59.707,49.142,63.145,50.107,63.145z     M35.789,28.314c0-7.837,6.375-14.213,14.21-14.213c7.839,0,14.216,6.376,14.216,14.213s-6.377,14.213-14.216,14.213    C42.163,42.528,35.789,36.152,35.789,28.314z"/><path fill="none" d="M60.385,28.314c0-5.725-4.659-10.383-10.386-10.383c-5.723,0-10.38,4.658-10.38,10.383    s4.656,10.383,10.38,10.383C55.725,38.698,60.385,34.04,60.385,28.314z"/><path fill="none" d="M58.645,58.744c-2.848,4.555-5.945,8.231-8.538,8.231c-2.23,0-4.798-2.265-7.346-5.723l-2.872,16.713    l18.755,8.827V58.744z"/><path fill="none" d="M34.042,77.042l4.032-23.462c-0.65-1.24-1.282-2.517-1.888-3.815l-14.407,5.261L9.472,87.603l24.546-9.818    C33.998,77.541,33.998,77.293,34.042,77.042z"/><polygon fill="none" points="64.564,54.612 64.564,87.14 90.871,77.531 79.388,51.48   "/><path d="M94.75,76.836C94.75,76.835,94.75,76.835,94.75,76.836L82.608,49.29c-0.561-1.275-1.958-1.992-3.323-1.704l-16.373,3.459    c3.5-6.987,7.555-17.067,7.555-22.685c0-11.286-9.182-20.467-20.47-20.467c-11.285,0-20.466,9.181-20.466,20.467    c0,3.674,2.081,10.776,5.091,17.898l-14.548,5.313c-0.807,0.3-1.442,0.934-1.741,1.732L5.187,88.108    c-0.409,1.096-0.134,2.333,0.702,3.151c0.558,0.546,1.293,0.847,2.069,0.847c0.389,0,0.767-0.075,1.101-0.213l27.804-11.12    l23.501,11.061c0.023,0.01,0.048,0.014,0.071,0.024c0.152,0.066,0.309,0.118,0.47,0.157c0.041,0.01,0.08,0.02,0.121,0.028    c0.189,0.038,0.381,0.063,0.578,0.063c0.156,0,0.311-0.016,0.465-0.041c0.054-0.009,0.107-0.023,0.16-0.034    c0.098-0.022,0.195-0.046,0.291-0.078c0.032-0.011,0.065-0.014,0.097-0.026l30.443-11.119c0.767-0.282,1.389-0.874,1.705-1.626    C95.083,78.433,95.077,77.577,94.75,76.836z M42.761,61.252c2.548,3.459,5.116,5.723,7.346,5.723c2.593,0,5.69-3.676,8.538-8.231    v28.048l-18.755-8.827L42.761,61.252z M49.998,11.723c9.175,0,16.64,7.463,16.64,16.637c0,9.428-13.133,33.897-16.531,34.785    c-0.964,0-4.775-3.438-9.816-13.656c-4.08-8.268-6.929-16.957-6.929-21.129C33.362,19.187,40.825,11.723,49.998,11.723z     M21.778,55.026l14.407-5.261c0.606,1.298,1.238,2.575,1.888,3.815l-4.032,23.462c-0.043,0.25-0.044,0.498-0.024,0.743    L9.472,87.603L21.778,55.026z M64.564,87.14V54.612l14.824-3.132l11.483,26.052L64.564,87.14z"/><path d="M64.215,28.314c0-7.837-6.377-14.213-14.216-14.213c-7.835,0-14.21,6.376-14.21,14.213s6.375,14.213,14.21,14.213    C57.837,42.528,64.215,36.152,64.215,28.314z M39.619,28.314c0-5.725,4.656-10.383,10.38-10.383    c5.727,0,10.386,4.658,10.386,10.383s-4.659,10.383-10.386,10.383C44.275,38.698,39.619,34.04,39.619,28.314z"/></g></g><text x="0" y="115" fill="#000000" font-size="5px" font-weight="bold" font-family="'Helvetica Neue', Helvetica, Arial-Unicode, Arial, Sans-serif"></text><text x="0" y="120" fill="#000000" font-size="5px" font-weight="bold" font-family="'Helvetica Neue', Helvetica, Arial-Unicode, Arial, Sans-serif"></text></svg>
